<?xml version="1.0" encoding="utf-8"?>
<!-- Generator: Adobe Illustrator 22.0.0, SVG Export Plug-In . SVG Version: 6.00 Build 0)  -->
<svg version="1.1" id="Group_33" xmlns="http://www.w3.org/2000/svg" xmlns:xlink="http://www.w3.org/1999/xlink" x="0px" y="0px"
	 viewBox="0 0 519.3 314.1" style="enable-background:new 0 0 519.3 314.1;" xml:space="preserve">
<style type="text/css">
	.st0{fill:#B5B5B1;}
	.st1{fill:#FFFFFF;}
	.st2{fill:#EFEFEF;}
</style>
<path class="st0" d="M9.2,302.4c0.9-2.8,3.4-4.8,6.4-4.8c3.3,0,6.1,2.4,6.6,5.7c20.7,1.3,463.6,6.2,484.2,6.4V5.8H0v296
	C3.1,302,6.1,302.2,9.2,302.4z M8.8,23.1c0.2-3.7,3.1-6.6,6.8-6.7c3.7-0.1,6.7,2.8,6.9,6.6c0.1,3.8-2.7,6.9-6.4,7
	c-0.2,0-0.3,0-0.5,0C11.9,30.1,8.9,27,8.8,23.1C8.8,23.2,8.8,23.2,8.8,23.1z M15.6,44.5c3.7,0,6.8,3.1,6.8,6.9
	c-0.1,3.8-3.1,6.9-6.8,6.9v0c-3.7,0-6.8-3.1-6.8-6.9S11.9,44.5,15.6,44.5z M15.6,72.4c3.7,0,6.8,3.1,6.8,6.9c0,3.8-3,6.9-6.7,6.9
	c0,0-0.1,0-0.1,0c-3.7,0-6.8-3.1-6.8-6.9S11.9,72.4,15.6,72.4z M15.6,100.7c3.7,0,6.8,3.1,6.8,6.9c-0.1,3.8-3.1,6.9-6.8,6.9v0
	c-3.7,0-6.8-3.1-6.8-6.9S11.9,100.7,15.6,100.7z M15.6,128.7c3.7,0,6.8,3.1,6.8,6.9c0,3.8-3,6.9-6.7,6.9c0,0-0.1,0-0.1,0v0
	c-3.7,0-6.8-3.1-6.8-6.9S11.9,128.7,15.6,128.7z M15.6,156.9c3.7,0,6.8,3.1,6.8,6.9c-0.1,3.8-3.1,6.9-6.8,6.9v0
	c-3.7,0-6.8-3.1-6.8-6.9S11.9,156.9,15.6,156.9z M15.6,184.9c3.7,0,6.8,3.1,6.8,6.9c0,3.8-3,6.9-6.7,6.9c0,0-0.1,0-0.1,0v0
	c-3.7,0-6.8-3.1-6.8-6.9S11.9,184.9,15.6,184.9z M15.6,213.2c3.7,0,6.8,3.1,6.8,6.9c0,3.8-3,6.9-6.7,6.9c0,0-0.1,0-0.1,0v0
	c-3.7,0-6.8-3.1-6.8-6.9S11.9,213.2,15.6,213.2z M15.6,241.2c3.7,0,6.8,3.1,6.8,6.9c0,3.8-3,6.9-6.7,6.9c0,0-0.1,0-0.1,0v0
	c-3.7,0-6.8-3.1-6.8-6.9S11.9,241.2,15.6,241.2z M15.6,269.4c3.7,0,6.8,3.1,6.8,6.9c0,0,0,0,0,0c0,3.8-3,6.9-6.7,6.9
	c0,0-0.1,0-0.1,0v0c-3.7,0-6.8-3.1-6.8-6.9S11.9,269.4,15.6,269.4z"/>
<g id="Group_32">
	<path class="st1" d="M9.1,302.4c0.3-3.5,3.3-6.3,6.9-6.3c3.8,0,6.9,3.1,6.9,6.9c0,0.1,0,0.2,0,0.3c20.5,1.3,468.3,6.3,491.6,6.5
		V4.3H0v297.5C3,302,6.1,302.2,9.1,302.4z M9.3,21.6c0-3.6,2.9-6.6,6.5-6.7c0,0,0.1,0,0.1,0c3.8-0.1,6.9,2.8,7,6.6s-2.8,6.9-6.6,7
		c-0.2,0-0.3,0-0.5,0c-3.7,0-6.7-3-6.7-6.7C9.3,21.8,9.3,21.7,9.3,21.6z M16,43c3.8,0,6.9,3.1,6.9,6.9c-0.1,3.8-3.1,6.9-6.9,6.9v0
		c-3.8,0-6.9-3.1-6.9-6.9S12.2,43,16,43z M16,71c3.8,0,6.9,3.1,6.9,6.9c0,3.8-3,6.9-6.8,6.9c0,0-0.1,0-0.1,0c-3.8,0-6.9-3.1-6.9-6.9
		S12.2,71,16,71z M16,99.2c3.8,0,6.9,3.1,6.9,6.9c-0.1,3.8-3.1,6.9-6.9,6.9v0c-3.8,0-6.9-3.1-6.9-6.9S12.2,99.2,16,99.2z M16,127.2
		c3.8,0,6.9,3.1,6.9,6.9c0,3.8-3,6.9-6.8,6.9c0,0-0.1,0-0.1,0v0c-3.8,0-6.9-3.1-6.9-6.9S12.2,127.2,16,127.2z M16,155.4
		c3.8,0,6.9,3.1,6.9,6.9c-0.1,3.8-3.1,6.9-6.9,6.9v0c-3.8,0-6.9-3.1-6.9-6.9S12.2,155.4,16,155.4z M16,183.4c3.8,0,6.9,3.1,6.9,6.9
		c0,3.8-3,6.9-6.8,6.9c0,0-0.1,0-0.1,0v0c-3.8,0-6.9-3.1-6.9-6.9S12.2,183.4,16,183.4z M16,211.7c3.8,0,6.9,3.1,6.9,6.9
		c0,3.8-3,6.9-6.8,6.9c0,0-0.1,0-0.1,0v0c-3.8,0-6.9-3.1-6.9-6.9S12.2,211.7,16,211.7z M16,239.7c3.8,0,6.9,3.1,6.9,6.9
		c0,3.8-3,6.9-6.8,6.9c0,0-0.1,0-0.1,0v0c-3.8,0-6.9-3.1-6.9-6.9S12.2,239.7,16,239.7z M16,267.9c3.8,0,6.9,3.1,6.9,6.9
		c0,3.8-3,6.9-6.8,6.9c0,0-0.1,0-0.1,0v0c-3.8,0-6.9-3.1-6.9-6.9C9.1,271,12.2,267.9,16,267.9z"/>
	<g id="Group_31" transform="translate(30.383 15.991)">
		<g id="Group_15">
			<g id="Group_7">
				<g id="Group_3">
					<g id="Group_1">
						<rect id="Rectangle_1" x="0" y="4.3" class="st2" width="466.3" height="2.9"/>
					</g>
					<g id="Group_2" transform="translate(0 28.251)">
						<rect id="Rectangle_2" x="0" y="4.3" class="st2" width="466.3" height="2.9"/>
					</g>
				</g>
				<g id="Group_6" transform="translate(0 56.235)">
					<g id="Group_4">
						<rect id="Rectangle_3" x="0" y="4.3" class="st2" width="466.3" height="2.9"/>
					</g>
					<g id="Group_5" transform="translate(0 28.251)">
						<rect id="Rectangle_4" x="0" y="4.3" class="st2" width="466.3" height="2.9"/>
					</g>
				</g>
			</g>
			<g id="Group_14" transform="translate(0 112.47)">
				<g id="Group_10">
					<g id="Group_8">
						<rect id="Rectangle_5" x="0" y="4.3" class="st2" width="466.3" height="2.9"/>
					</g>
					<g id="Group_9" transform="translate(0 28.251)">
						<rect id="Rectangle_6" x="0" y="4.3" class="st2" width="466.3" height="2.9"/>
					</g>
				</g>
				<g id="Group_13" transform="translate(0 56.502)">
					<g id="Group_11">
						<rect id="Rectangle_7" x="0" y="4.3" class="st2" width="466.3" height="2.9"/>
					</g>
					<g id="Group_12" transform="translate(0 27.984)">
						<rect id="Rectangle_8" x="0" y="4.3" class="st2" width="466.3" height="2.9"/>
					</g>
				</g>
			</g>
		</g>
		<g id="Group_30" transform="translate(0 225.206)">
			<g id="Group_22">
				<g id="Group_18">
					<g id="Group_16">
						<rect id="Rectangle_9" x="0" y="4.3" class="st2" width="466.3" height="2.9"/>
					</g>
					<g id="Group_17" transform="translate(0 27.984)">
						<rect id="Rectangle_10" x="0" y="4.3" class="st2" width="466.3" height="2.9"/>
					</g>
				</g>
				<g id="Group_21" transform="translate(0 56.235)">
					<g id="Group_19">
						<path class="st2" d="M16.2,7.3h450V4.3H0v2C5.4,6.7,10.8,7,16.2,7.3z"/>
					</g>
				</g>
			</g>
		</g>
	</g>
</g>
</svg>
