<?xml version="1.0" encoding="utf-8"?>
<!-- Generator: Adobe Illustrator 22.0.0, SVG Export Plug-In . SVG Version: 6.00 Build 0)  -->
<svg version="1.1" id="Group_33" xmlns="http://www.w3.org/2000/svg" xmlns:xlink="http://www.w3.org/1999/xlink" x="0px" y="0px"
	 viewBox="0 0 519.3 838.1" style="enable-background:new 0 0 519.3 838.1;" xml:space="preserve">
<style type="text/css">
	.st0{fill:#B5B5B1;}
	.st1{fill:#FFFFFF;}
	.st2{fill:#EFEFEF;}
</style>
<path class="st0" d="M9.2,302.4c0.9-2.8,3.4-4.8,6.4-4.8c3.3,0,6.1,2.4,6.6,5.7c20.7,1.3,463.6,6.2,484.2,6.4V5.8H0v296
	C3.1,302,6.1,302.2,9.2,302.4z M8.8,23.1c0.2-3.7,3.1-6.6,6.8-6.7c3.7-0.1,6.7,2.8,6.9,6.6c0.1,3.8-2.7,6.9-6.4,7
	c-0.2,0-0.3,0-0.5,0C11.9,30.1,8.9,27,8.8,23.1C8.8,23.2,8.8,23.2,8.8,23.1z M15.6,44.5c3.7,0,6.8,3.1,6.8,6.9
	c-0.1,3.8-3.1,6.9-6.8,6.9l0,0c-3.7,0-6.8-3.1-6.8-6.9S11.9,44.5,15.6,44.5z M15.6,72.4c3.7,0,6.8,3.1,6.8,6.9s-3,6.9-6.7,6.9h-0.1
	c-3.7,0-6.8-3.1-6.8-6.9S11.9,72.4,15.6,72.4z M15.6,100.7c3.7,0,6.8,3.1,6.8,6.9c-0.1,3.8-3.1,6.9-6.8,6.9l0,0
	c-3.7,0-6.8-3.1-6.8-6.9S11.9,100.7,15.6,100.7z M15.6,128.7c3.7,0,6.8,3.1,6.8,6.9c0,3.8-3,6.9-6.7,6.9h-0.1l0,0
	c-3.7,0-6.8-3.1-6.8-6.9S11.9,128.7,15.6,128.7z M15.6,156.9c3.7,0,6.8,3.1,6.8,6.9c-0.1,3.8-3.1,6.9-6.8,6.9l0,0
	c-3.7,0-6.8-3.1-6.8-6.9S11.9,156.9,15.6,156.9z M15.6,184.9c3.7,0,6.8,3.1,6.8,6.9c0,3.8-3,6.9-6.7,6.9h-0.1l0,0
	c-3.7,0-6.8-3.1-6.8-6.9S11.9,184.9,15.6,184.9z M15.6,213.2c3.7,0,6.8,3.1,6.8,6.9c0,3.8-3,6.9-6.7,6.9h-0.1l0,0
	c-3.7,0-6.8-3.1-6.8-6.9S11.9,213.2,15.6,213.2z M15.6,241.2c3.7,0,6.8,3.1,6.8,6.9c0,3.8-3,6.9-6.7,6.9h-0.1l0,0
	c-3.7,0-6.8-3.1-6.8-6.9S11.9,241.2,15.6,241.2z M15.6,269.4c3.7,0,6.8,3.1,6.8,6.9l0,0c0,3.8-3,6.9-6.7,6.9h-0.1l0,0
	c-3.7,0-6.8-3.1-6.8-6.9S11.9,269.4,15.6,269.4z"/>
<g id="Group_32">
	<path class="st1" d="M9.1,302.4c0.3-3.5,3.3-6.3,6.9-6.3c3.8,0,6.9,3.1,6.9,6.9c0,0.1,0,0.2,0,0.3c20.5,1.3,468.3,6.3,491.6,6.5
		V4.3H0v297.5C3,302,6.1,302.2,9.1,302.4z M9.3,21.6c0-3.6,2.9-6.6,6.5-6.7h0.1c3.8-0.1,6.9,2.8,7,6.6s-2.8,6.9-6.6,7
		c-0.2,0-0.3,0-0.5,0c-3.7,0-6.7-3-6.7-6.7C9.3,21.8,9.3,21.7,9.3,21.6z M16,43c3.8,0,6.9,3.1,6.9,6.9c-0.1,3.8-3.1,6.9-6.9,6.9l0,0
		c-3.8,0-6.9-3.1-6.9-6.9S12.2,43,16,43z M16,71c3.8,0,6.9,3.1,6.9,6.9s-3,6.9-6.8,6.9H16c-3.8,0-6.9-3.1-6.9-6.9S12.2,71,16,71z
		 M16,99.2c3.8,0,6.9,3.1,6.9,6.9c-0.1,3.8-3.1,6.9-6.9,6.9l0,0c-3.8,0-6.9-3.1-6.9-6.9S12.2,99.2,16,99.2z M16,127.2
		c3.8,0,6.9,3.1,6.9,6.9c0,3.8-3,6.9-6.8,6.9H16l0,0c-3.8,0-6.9-3.1-6.9-6.9S12.2,127.2,16,127.2z M16,155.4c3.8,0,6.9,3.1,6.9,6.9
		c-0.1,3.8-3.1,6.9-6.9,6.9l0,0c-3.8,0-6.9-3.1-6.9-6.9S12.2,155.4,16,155.4z M16,183.4c3.8,0,6.9,3.1,6.9,6.9c0,3.8-3,6.9-6.8,6.9
		H16l0,0c-3.8,0-6.9-3.1-6.9-6.9S12.2,183.4,16,183.4z M16,211.7c3.8,0,6.9,3.1,6.9,6.9c0,3.8-3,6.9-6.8,6.9H16l0,0
		c-3.8,0-6.9-3.1-6.9-6.9S12.2,211.7,16,211.7z M16,239.7c3.8,0,6.9,3.1,6.9,6.9c0,3.8-3,6.9-6.8,6.9H16l0,0c-3.8,0-6.9-3.1-6.9-6.9
		S12.2,239.7,16,239.7z M16,267.9c3.8,0,6.9,3.1,6.9,6.9s-3,6.9-6.8,6.9H16l0,0c-3.8,0-6.9-3.1-6.9-6.9C9.1,271,12.2,267.9,16,267.9
		z"/>
	<g id="Group_31" transform="translate(30.383 15.991)">
		<g id="Group_15">
			<g id="Group_7">
				<g id="Group_3">
					<g id="Group_1">
						<rect id="Rectangle_1" x="0" y="4.3" class="st2" width="466.3" height="2.9"/>
					</g>
					<g id="Group_2" transform="translate(0 28.251)">
						<rect id="Rectangle_2" x="0" y="4.3" class="st2" width="466.3" height="2.9"/>
					</g>
				</g>
				<g id="Group_6" transform="translate(0 56.235)">
					<g id="Group_4">
						<rect id="Rectangle_3" x="0" y="4.3" class="st2" width="466.3" height="2.9"/>
					</g>
					<g id="Group_5" transform="translate(0 28.251)">
						<rect id="Rectangle_4" x="0" y="4.3" class="st2" width="466.3" height="2.9"/>
					</g>
				</g>
			</g>
			<g id="Group_14" transform="translate(0 112.47)">
				<g id="Group_10">
					<g id="Group_8">
						<rect id="Rectangle_5" x="0" y="4.3" class="st2" width="466.3" height="2.9"/>
					</g>
					<g id="Group_9" transform="translate(0 28.251)">
						<rect id="Rectangle_6" x="0" y="4.3" class="st2" width="466.3" height="2.9"/>
					</g>
				</g>
				<g id="Group_13" transform="translate(0 56.502)">
					<g id="Group_11">
						<rect id="Rectangle_7" x="0" y="4.3" class="st2" width="466.3" height="2.9"/>
					</g>
					<g id="Group_12" transform="translate(0 27.984)">
						<rect id="Rectangle_8" x="0" y="4.3" class="st2" width="466.3" height="2.9"/>
					</g>
				</g>
			</g>
		</g>
		<g id="Group_30" transform="translate(0 225.206)">
			<g id="Group_22">
				<g id="Group_18">
					<g id="Group_16">
						<rect id="Rectangle_9" x="0" y="4.3" class="st2" width="466.3" height="2.9"/>
					</g>
					<g id="Group_17" transform="translate(0 27.984)">
						<rect id="Rectangle_10" x="0" y="4.3" class="st2" width="466.3" height="2.9"/>
					</g>
				</g>
				<g id="Group_21" transform="translate(0 56.235)">
					<g id="Group_19">
						<path class="st2" d="M16.2,7.3h450v-3H0v2C5.4,6.7,10.8,7,16.2,7.3z"/>
					</g>
				</g>
			</g>
		</g>
	</g>
</g>
<path class="st0" d="M9.2,865.1c0.9-2.8,3.4-4.8,6.4-4.8c3.3,0,6.1,2.4,6.6,5.7c20.7,1.3,463.6,6.2,484.2,6.4V568.5H0v296
	C3.1,864.7,6.1,864.9,9.2,865.1z M8.8,585.8c0.2-3.7,3.1-6.6,6.8-6.7c3.7-0.1,6.7,2.8,6.9,6.6c0.1,3.8-2.7,6.9-6.4,7
	c-0.2,0-0.3,0-0.5,0C11.9,592.8,8.9,589.7,8.8,585.8C8.8,585.9,8.8,585.9,8.8,585.8z M15.6,607.2c3.7,0,6.8,3.1,6.8,6.9
	c-0.1,3.8-3.1,6.9-6.8,6.9l0,0c-3.7,0-6.8-3.1-6.8-6.9C8.8,610.3,11.9,607.2,15.6,607.2z M15.6,635.1c3.7,0,6.8,3.1,6.8,6.9
	c0,3.8-3,6.9-6.7,6.9h-0.1c-3.7,0-6.8-3.1-6.8-6.9C8.8,638.2,11.9,635.1,15.6,635.1z M15.6,663.4c3.7,0,6.8,3.1,6.8,6.9
	c-0.1,3.8-3.1,6.9-6.8,6.9l0,0c-3.7,0-6.8-3.1-6.8-6.9C8.8,666.5,11.9,663.4,15.6,663.4z M15.6,691.4c3.7,0,6.8,3.1,6.8,6.9
	s-3,6.9-6.7,6.9h-0.1l0,0c-3.7,0-6.8-3.1-6.8-6.9S11.9,691.4,15.6,691.4z M15.6,719.6c3.7,0,6.8,3.1,6.8,6.9
	c-0.1,3.8-3.1,6.9-6.8,6.9l0,0c-3.7,0-6.8-3.1-6.8-6.9S11.9,719.6,15.6,719.6z M15.6,747.6c3.7,0,6.8,3.1,6.8,6.9s-3,6.9-6.7,6.9
	h-0.1l0,0c-3.7,0-6.8-3.1-6.8-6.9S11.9,747.6,15.6,747.6z M15.6,775.9c3.7,0,6.8,3.1,6.8,6.9s-3,6.9-6.7,6.9h-0.1l0,0
	c-3.7,0-6.8-3.1-6.8-6.9S11.9,775.9,15.6,775.9z M15.6,803.9c3.7,0,6.8,3.1,6.8,6.9s-3,6.9-6.7,6.9h-0.1l0,0c-3.7,0-6.8-3.1-6.8-6.9
	S11.9,803.9,15.6,803.9z M15.6,832.1c3.7,0,6.8,3.1,6.8,6.9l0,0c0,3.8-3,6.9-6.7,6.9h-0.1l0,0c-3.7,0-6.8-3.1-6.8-6.9
	S11.9,832.1,15.6,832.1z"/>
<g id="Group_32_2_">
	<path class="st1" d="M9.1,865.1c0.3-3.5,3.3-6.3,6.9-6.3c3.8,0,6.9,3.1,6.9,6.9c0,0.1,0,0.2,0,0.3c20.5,1.3,468.3,6.3,491.6,6.5
		V567H0v297.5C3,864.7,6.1,864.9,9.1,865.1z M9.3,584.3c0-3.6,2.9-6.6,6.5-6.7h0.1c3.8-0.1,6.9,2.8,7,6.6s-2.8,6.9-6.6,7
		c-0.2,0-0.3,0-0.5,0c-3.7,0-6.7-3-6.7-6.7C9.3,584.5,9.3,584.4,9.3,584.3z M16,605.7c3.8,0,6.9,3.1,6.9,6.9
		c-0.1,3.8-3.1,6.9-6.9,6.9l0,0c-3.8,0-6.9-3.1-6.9-6.9C9.1,608.8,12.2,605.7,16,605.7z M16,633.7c3.8,0,6.9,3.1,6.9,6.9
		c0,3.8-3,6.9-6.8,6.9H16c-3.8,0-6.9-3.1-6.9-6.9C9.1,636.8,12.2,633.7,16,633.7z M16,661.9c3.8,0,6.9,3.1,6.9,6.9
		c-0.1,3.8-3.1,6.9-6.9,6.9l0,0c-3.8,0-6.9-3.1-6.9-6.9C9.1,665,12.2,661.9,16,661.9z M16,689.9c3.8,0,6.9,3.1,6.9,6.9
		s-3,6.9-6.8,6.9H16l0,0c-3.8,0-6.9-3.1-6.9-6.9S12.2,689.9,16,689.9z M16,718.1c3.8,0,6.9,3.1,6.9,6.9c-0.1,3.8-3.1,6.9-6.9,6.9
		l0,0c-3.8,0-6.9-3.1-6.9-6.9S12.2,718.1,16,718.1z M16,746.1c3.8,0,6.9,3.1,6.9,6.9s-3,6.9-6.8,6.9H16l0,0c-3.8,0-6.9-3.1-6.9-6.9
		S12.2,746.1,16,746.1z M16,774.4c3.8,0,6.9,3.1,6.9,6.9s-3,6.9-6.8,6.9H16l0,0c-3.8,0-6.9-3.1-6.9-6.9S12.2,774.4,16,774.4z
		 M16,802.4c3.8,0,6.9,3.1,6.9,6.9s-3,6.9-6.8,6.9H16l0,0c-3.8,0-6.9-3.1-6.9-6.9S12.2,802.4,16,802.4z M16,830.6
		c3.8,0,6.9,3.1,6.9,6.9s-3,6.9-6.8,6.9H16l0,0c-3.8,0-6.9-3.1-6.9-6.9C9.1,833.7,12.2,830.6,16,830.6z"/>
	<g id="Group_31_2_" transform="translate(30.383 15.991)">
		<g id="Group_15_2_">
			<g id="Group_7_2_">
				<g id="Group_3_2_">
					<g id="Group_1_2_">
						<rect id="Rectangle_1_2_" x="0" y="567" class="st2" width="466.3" height="2.9"/>
					</g>
					<g id="Group_2_2_" transform="translate(0 28.251)">
						<rect id="Rectangle_2_2_" x="0" y="567" class="st2" width="466.3" height="2.9"/>
					</g>
				</g>
				<g id="Group_6_2_" transform="translate(0 56.235)">
					<g id="Group_4_2_">
						<rect id="Rectangle_3_2_" x="0" y="567" class="st2" width="466.3" height="2.9"/>
					</g>
					<g id="Group_5_2_" transform="translate(0 28.251)">
						<rect id="Rectangle_4_2_" x="0" y="567" class="st2" width="466.3" height="2.9"/>
					</g>
				</g>
			</g>
			<g id="Group_14_2_" transform="translate(0 112.47)">
				<g id="Group_10_2_">
					<g id="Group_8_2_">
						<rect id="Rectangle_5_2_" x="0" y="567" class="st2" width="466.3" height="2.9"/>
					</g>
					<g id="Group_9_2_" transform="translate(0 28.251)">
						<rect id="Rectangle_6_2_" x="0" y="567" class="st2" width="466.3" height="2.9"/>
					</g>
				</g>
				<g id="Group_13_2_" transform="translate(0 56.502)">
					<g id="Group_11_2_">
						<rect id="Rectangle_7_2_" x="0" y="567" class="st2" width="466.3" height="2.9"/>
					</g>
					<g id="Group_12_2_" transform="translate(0 27.984)">
						<rect id="Rectangle_8_2_" x="0" y="567" class="st2" width="466.3" height="2.9"/>
					</g>
				</g>
			</g>
		</g>
		<g id="Group_30_2_" transform="translate(0 225.206)">
			<g id="Group_22_2_">
				<g id="Group_18_2_">
					<g id="Group_16_2_">
						<rect id="Rectangle_9_2_" x="0" y="567" class="st2" width="466.3" height="2.9"/>
					</g>
					<g id="Group_17_2_" transform="translate(0 27.984)">
						<rect id="Rectangle_10_2_" x="0" y="567" class="st2" width="466.3" height="2.9"/>
					</g>
				</g>
				<g id="Group_21_2_" transform="translate(0 56.235)">
					<g id="Group_19_2_">
						<path class="st2" d="M16.2,570h450v-3H0v2C5.4,569.4,10.8,569.7,16.2,570z"/>
					</g>
				</g>
			</g>
		</g>
	</g>
</g>
<path class="st0" d="M9.2,584.1c0.9-2.8,3.4-4.8,6.4-4.8c3.3,0,6.1,2.4,6.6,5.7c20.7,1.3,463.6,6.2,484.2,6.4V287.5H0v296
	C3.1,583.7,6.1,583.9,9.2,584.1z M8.8,304.8c0.2-3.7,3.1-6.6,6.8-6.7s6.7,2.8,6.9,6.6c0.1,3.8-2.7,6.9-6.4,7c-0.2,0-0.3,0-0.5,0
	C11.9,311.8,8.9,308.7,8.8,304.8C8.8,304.9,8.8,304.9,8.8,304.8z M15.6,326.2c3.7,0,6.8,3.1,6.8,6.9c-0.1,3.8-3.1,6.9-6.8,6.9l0,0
	c-3.7,0-6.8-3.1-6.8-6.9C8.8,329.3,11.9,326.2,15.6,326.2z M15.6,354.1c3.7,0,6.8,3.1,6.8,6.9c0,3.8-3,6.9-6.7,6.9h-0.1
	c-3.7,0-6.8-3.1-6.8-6.9C8.8,357.2,11.9,354.1,15.6,354.1z M15.6,382.4c3.7,0,6.8,3.1,6.8,6.9c-0.1,3.8-3.1,6.9-6.8,6.9l0,0
	c-3.7,0-6.8-3.1-6.8-6.9C8.8,385.5,11.9,382.4,15.6,382.4z M15.6,410.4c3.7,0,6.8,3.1,6.8,6.9c0,3.8-3,6.9-6.7,6.9h-0.1l0,0
	c-3.7,0-6.8-3.1-6.8-6.9S11.9,410.4,15.6,410.4z M15.6,438.6c3.7,0,6.8,3.1,6.8,6.9c-0.1,3.8-3.1,6.9-6.8,6.9l0,0
	c-3.7,0-6.8-3.1-6.8-6.9S11.9,438.6,15.6,438.6z M15.6,466.6c3.7,0,6.8,3.1,6.8,6.9s-3,6.9-6.7,6.9h-0.1l0,0c-3.7,0-6.8-3.1-6.8-6.9
	S11.9,466.6,15.6,466.6z M15.6,494.9c3.7,0,6.8,3.1,6.8,6.9c0,3.8-3,6.9-6.7,6.9h-0.1l0,0c-3.7,0-6.8-3.1-6.8-6.9
	S11.9,494.9,15.6,494.9z M15.6,522.9c3.7,0,6.8,3.1,6.8,6.9s-3,6.9-6.7,6.9h-0.1l0,0c-3.7,0-6.8-3.1-6.8-6.9S11.9,522.9,15.6,522.9z
	 M15.6,551.1c3.7,0,6.8,3.1,6.8,6.9l0,0c0,3.8-3,6.9-6.7,6.9h-0.1l0,0c-3.7,0-6.8-3.1-6.8-6.9S11.9,551.1,15.6,551.1z"/>
<g id="Group_32_1_">
	<path class="st1" d="M9.1,584.1c0.3-3.5,3.3-6.3,6.9-6.3c3.8,0,6.9,3.1,6.9,6.9c0,0.1,0,0.2,0,0.3c20.5,1.3,468.3,6.3,491.6,6.5
		V286H0v297.5C3,583.7,6.1,583.9,9.1,584.1z M9.3,303.3c0-3.6,2.9-6.6,6.5-6.7h0.1c3.8-0.1,6.9,2.8,7,6.6s-2.8,6.9-6.6,7
		c-0.2,0-0.3,0-0.5,0c-3.7,0-6.7-3-6.7-6.7C9.3,303.5,9.3,303.4,9.3,303.3z M16,324.7c3.8,0,6.9,3.1,6.9,6.9
		c-0.1,3.8-3.1,6.9-6.9,6.9l0,0c-3.8,0-6.9-3.1-6.9-6.9C9.1,327.8,12.2,324.7,16,324.7z M16,352.7c3.8,0,6.9,3.1,6.9,6.9
		c0,3.8-3,6.9-6.8,6.9H16c-3.8,0-6.9-3.1-6.9-6.9C9.1,355.8,12.2,352.7,16,352.7z M16,380.9c3.8,0,6.9,3.1,6.9,6.9
		c-0.1,3.8-3.1,6.9-6.9,6.9l0,0c-3.8,0-6.9-3.1-6.9-6.9C9.1,384,12.2,380.9,16,380.9z M16,408.9c3.8,0,6.9,3.1,6.9,6.9
		c0,3.8-3,6.9-6.8,6.9H16l0,0c-3.8,0-6.9-3.1-6.9-6.9S12.2,408.9,16,408.9z M16,437.1c3.8,0,6.9,3.1,6.9,6.9
		c-0.1,3.8-3.1,6.9-6.9,6.9l0,0c-3.8,0-6.9-3.1-6.9-6.9S12.2,437.1,16,437.1z M16,465.1c3.8,0,6.9,3.1,6.9,6.9s-3,6.9-6.8,6.9H16
		l0,0c-3.8,0-6.9-3.1-6.9-6.9S12.2,465.1,16,465.1z M16,493.4c3.8,0,6.9,3.1,6.9,6.9c0,3.8-3,6.9-6.8,6.9H16l0,0
		c-3.8,0-6.9-3.1-6.9-6.9S12.2,493.4,16,493.4z M16,521.4c3.8,0,6.9,3.1,6.9,6.9s-3,6.9-6.8,6.9H16l0,0c-3.8,0-6.9-3.1-6.9-6.9
		S12.2,521.4,16,521.4z M16,549.6c3.8,0,6.9,3.1,6.9,6.9s-3,6.9-6.8,6.9H16l0,0c-3.8,0-6.9-3.1-6.9-6.9
		C9.1,552.7,12.2,549.6,16,549.6z"/>
	<g id="Group_31_1_" transform="translate(30.383 15.991)">
		<g id="Group_15_1_">
			<g id="Group_7_1_">
				<g id="Group_3_1_">
					<g id="Group_1_1_">
						<rect id="Rectangle_1_1_" x="0" y="286" class="st2" width="466.3" height="2.9"/>
					</g>
					<g id="Group_2_1_" transform="translate(0 28.251)">
						<rect id="Rectangle_2_1_" x="0" y="286" class="st2" width="466.3" height="2.9"/>
					</g>
				</g>
				<g id="Group_6_1_" transform="translate(0 56.235)">
					<g id="Group_4_1_">
						<rect id="Rectangle_3_1_" x="0" y="286" class="st2" width="466.3" height="2.9"/>
					</g>
					<g id="Group_5_1_" transform="translate(0 28.251)">
						<rect id="Rectangle_4_1_" x="0" y="286" class="st2" width="466.3" height="2.9"/>
					</g>
				</g>
			</g>
			<g id="Group_14_1_" transform="translate(0 112.47)">
				<g id="Group_10_1_">
					<g id="Group_8_1_">
						<rect id="Rectangle_5_1_" x="0" y="286" class="st2" width="466.3" height="2.9"/>
					</g>
					<g id="Group_9_1_" transform="translate(0 28.251)">
						<rect id="Rectangle_6_1_" x="0" y="286" class="st2" width="466.3" height="2.9"/>
					</g>
				</g>
				<g id="Group_13_1_" transform="translate(0 56.502)">
					<g id="Group_11_1_">
						<rect id="Rectangle_7_1_" x="0" y="286" class="st2" width="466.3" height="2.9"/>
					</g>
					<g id="Group_12_1_" transform="translate(0 27.984)">
						<rect id="Rectangle_8_1_" x="0" y="286" class="st2" width="466.3" height="2.9"/>
					</g>
				</g>
			</g>
		</g>
		<g id="Group_30_1_" transform="translate(0 225.206)">
			<g id="Group_22_1_">
				<g id="Group_18_1_">
					<g id="Group_16_1_">
						<rect id="Rectangle_9_1_" x="0" y="286" class="st2" width="466.3" height="2.9"/>
					</g>
					<g id="Group_17_1_" transform="translate(0 27.984)">
						<rect id="Rectangle_10_1_" x="0" y="286" class="st2" width="466.3" height="2.9"/>
					</g>
				</g>
				<g id="Group_21_1_" transform="translate(0 56.235)">
					<g id="Group_19_1_">
						<path class="st2" d="M16.2,289h450v-3H0v2C5.4,288.4,10.8,288.7,16.2,289z"/>
					</g>
				</g>
			</g>
		</g>
	</g>
</g>
</svg>
