<svg xmlns="http://www.w3.org/2000/svg" width="75.525" height="126.283" viewBox="0 0 75.525 126.283"><path d="M111.978,170.233l-.354-.354c-.089.177,0,.354,0,.531,0,.354-.089.443-.354.443s-.62.089-.885.089a.324.324,0,0,0-.354.354,1.852,1.852,0,0,0,.531.354c.354.089.708.266,1.062.354a.509.509,0,0,1,.354.531c-.089,0-.089.089-.177.089-.354.177-.443.354-.354.8a1.123,1.123,0,0,1-.089.531c-.089.266-.266.354-.531.443a1.751,1.751,0,0,0-.885.177c.089.089.089.089.177.089.531.177.974.354,1.505.531a1.349,1.349,0,0,1,.885.531,1.415,1.415,0,0,0,.885.443c.974.354,2.036.708,3.01,1.151a8.1,8.1,0,0,1,1.24.62,2.815,2.815,0,0,1,1.062.974.487.487,0,0,0,.443.266c.089,0,.089.089.177.089a4.316,4.316,0,0,0-.266.62c.089.177.177.266.266.443-.089.089-.089.177-.177.266a5.871,5.871,0,0,1-1.682.8l-.089.089c0,.443.177.531.443.354a1.853,1.853,0,0,0,.531-.354l.531.266a1.356,1.356,0,0,1-.62.443,1.482,1.482,0,0,0-.8.974c-.089.177.089.354.266.354a3.321,3.321,0,0,0,.885-.089c.177.177.266.354.443.531a.535.535,0,0,1-.266.531c-.177.177-.443.443-.443.708a6.6,6.6,0,0,1-1.062.62c-.266.177-.266.354-.089.531.177.266.443.62.62.885a1.932,1.932,0,0,1-.354.443c0,.177.089.354.089.531a1.017,1.017,0,0,1-.531.974,3.851,3.851,0,0,0-.62.354,1.065,1.065,0,0,1-.177.708l.443.443a.325.325,0,0,1-.266.089.409.409,0,0,0-.443.266c.177.089.266.177.443.266,0,.089,0,.089-.089.177s-.177.089-.266.177l-1.859.8c-.089,0-.089.089-.177.089a1.728,1.728,0,0,0,.62.089c.177,0,.354-.089.531,0,.177,0,.354-.089.531.089a1.184,1.184,0,0,1-.62.708.671.671,0,0,0-.354.177,3.1,3.1,0,0,1-1.24.531c-.177.089-.266.089-.443.177a3.991,3.991,0,0,0,.974.266.309.309,0,0,1,.177.089.976.976,0,0,0,.8.266c.177,0,.354-.089.531-.089a3.834,3.834,0,0,0,.443.089c-.354.354-.62.708-1.062.708-.089.177-.089.354-.177.531-.354.354-.885.354-1.417.531a4.91,4.91,0,0,0-.531.708c.089.266.266.266.443.266a4.814,4.814,0,0,0,1.594,0c.177,0,.443-.089.62,0-.089.177-.089.266-.177.443-.089.089-.177.266-.266.266a.59.59,0,0,0-.443.62c-.089.266-.089.266.089.8a1.756,1.756,0,0,1-1.151.531c-.8.177-1.682.354-2.479.531-.266.089-.443.354-.62.531a1.852,1.852,0,0,0-.354.531c.089.177.089.266.177.443-.354.089-.708.177-.974.266,0,.177.089.177.177.177.266.089.62.089.885.177,0,.089.089.266.089.354s.089.177.177.266a1.377,1.377,0,0,0-.531.708c-.089.177-.266.443-.354.62-.177.177-.177.266-.177.531.089.354,0,.531-.354.62a2.652,2.652,0,0,0-.708.354,2.814,2.814,0,0,0-1.24-.177.774.774,0,0,0-.8.443c0,.089-.089.089-.177.177-.089,0-.177-.089-.266-.089l-.266.266a1.123,1.123,0,0,1-.531.089l-2.125.266c-1.151.089-2.391.177-3.542.354a21.769,21.769,0,0,1-2.479.177h-.885c-1.062,0-2.125.089-3.276.089-1.062,0-2.125.089-3.276.089H88.249c-1.062,0-2.036.089-3.1.089s-2.036.089-3.1.089-2.125.089-3.187.177c-1.594.089-3.187.089-4.693.177-2.568.089-5.224.177-7.792.266H56.551c-1.594,0-3.187-.089-4.781-.089-2.568-.089-5.135-.089-7.7-.177-1.505,0-3.01-.089-4.516-.177-1.948-.089-3.9-.177-5.932-.354-1.505-.089-2.922-.177-4.427-.266-1.062-.089-2.125-.266-3.187-.354-.708-.089-.708-.089-1.062-.62-.62-.266-.885-.266-1.062-1.062-.177,0-.266-.089-.443-.089a.8.8,0,0,1-.443-.089c-.177-.089-.354-.177-.354-.354s.177-.266.354-.354a1.316,1.316,0,0,0,.531-.089,2.946,2.946,0,0,1-.531-.266c.708-.089,1.328-.089,1.948-.177a.325.325,0,0,0,.266-.089c-.708-.089-1.417,0-2.036-.089a13.211,13.211,0,0,1-1.859-.177.668.668,0,0,1-.62-.354.46.46,0,0,0-.354-.177c-.089-.089-.266-.089-.266-.177a.863.863,0,0,0-.8-.354h-.8a.532.532,0,0,1-.354-.089,2.206,2.206,0,0,0-1.505-.266H16a.961.961,0,0,0-.708-.708.309.309,0,0,1-.177-.089c-.089-.177-.266-.177-.443-.177a4.31,4.31,0,0,1-1.062-.089h-.089a10.716,10.716,0,0,1-1.682.089,1.506,1.506,0,0,1-.62-.089,3.449,3.449,0,0,1-1.771-1.151,20.426,20.426,0,0,1-1.24-1.682.325.325,0,0,1-.089-.266,7.059,7.059,0,0,0-.708-1.417,3.793,3.793,0,0,1-.443-1.417,4.348,4.348,0,0,0-.885-2.214c-.177-.443-.531-.62-.885-.885-.177-.089-.266-.177-.443-.266a2.348,2.348,0,0,0-.531-.443.8.8,0,0,1-.531-.531c-.089-.089-.089-.177-.177-.266a1.192,1.192,0,0,1-.443-.8.858.858,0,0,0-.62-.708c-.089,0-.266-.177-.354-.266a.664.664,0,0,0-.443-.089c.177-.354.443-.266.62-.443l.089-.089a.777.777,0,0,1,.531-.62.485.485,0,0,0,.354-.531v-.177a1.014,1.014,0,0,0-.531-1.151l-.089-.089c0-.177.089-.177.266-.177a1.6,1.6,0,0,0,.885-.177,1.123,1.123,0,0,1,.531-.089,4.142,4.142,0,0,0,1.417-.177c-.177-.089-.266-.177-.354-.177-.443-.089-.8-.089-1.24-.177a7.07,7.07,0,0,1-2.3-.443,1.482,1.482,0,0,1,.8-.974,6.1,6.1,0,0,0-.266-.708c-.089,0-.177-.089-.266-.089-.354,0-.531-.266-.8-.531-.177-.177-.443-.354-.62-.531l.266-.266c.089-.266.354-.354.62-.443h.354a.651.651,0,0,0,.531-.177.8.8,0,0,1,.62-.266,1.506,1.506,0,0,0,.62-.089c.266,0,.354-.177.443-.443v-.443a.663.663,0,0,1,.089-.443c.177-.266.177-.354-.089-.62,0-.089-.089-.089-.089-.177v-.089a.8.8,0,0,1,.443-.089c1.24,0,2.479.089,3.719.089a4.31,4.31,0,0,0,1.062-.089,1.5,1.5,0,0,0,.443-.177c-.089-.089-.177-.177-.266-.177H8.12a1.409,1.409,0,0,1-1.151-.266c-.089-.089-.177-.089-.354-.089-.974-.089-1.859-.177-2.833-.266H3.427a.087.087,0,0,0-.089-.089c0-.62.266-.974,1.151-.974a2.407,2.407,0,0,0,.8,0c.089-.266-.089-.354-.266-.443a1.123,1.123,0,0,0-.531-.089H3.87a.64.64,0,0,1-.531-.354,5.288,5.288,0,0,1,.531-.974c.177-.177.177-.177.089-.708-.089,0-.177-.089-.354-.089-.266-.089-.531,0-.708-.266-.354-.089-.62-.177-.974-.266a1.507,1.507,0,0,0-.62-.089c-.177-.266-.089-.443.089-.708l.089-.089c.354-.354.354-.354,0-.708a.394.394,0,0,1-.177-.531c.089,0,.177-.089.266-.089a.452.452,0,0,0,.354-.443c.177-.8.177-.885-.443-1.328a.767.767,0,0,1-.354-.62,1.07,1.07,0,0,0-.266-.885.325.325,0,0,1-.089-.266c-.089-.266-.089-.531-.177-.8-.177,0-.266-.089-.354-.089a.325.325,0,0,1-.266-.089c-.089-.089-.266-.177-.177-.266s.177-.177.266-.177c.177,0,.266.089.443.089.443-.266.8-.531,1.24-.8.089-.089.177-.089.177-.177,0-.354.354-.443.531-.531.266-.177.443-.266.708-.443a.876.876,0,0,0,.443-.62,9.674,9.674,0,0,0-1.505-.443c0-.266.089-.443.089-.62-.177-.354-.531-.266-.885-.443a1.935,1.935,0,0,0-.266-.443c.443-.089.708-.089.708-.354a1.934,1.934,0,0,0-.443-.266c.354-.177.708,0,1.062,0H3.427c.354,0,.708.089,1.062.089s.708.089.974-.089c-.089-.177-.177-.177-.354-.177-.8-.089-1.594-.266-2.391-.354a19.581,19.581,0,0,1-2.214-.443c-.089,0-.089-.089-.177-.089.089-.177.089-.354.177-.531.266-.177.531-.266.8-.443h.177c.62.089,1.24-.089,1.859,0h.885a2.842,2.842,0,0,0,1.505-.177c-.089-.266-.354-.266-.531-.266L3.073,158.1c-.62-.089-1.328-.089-1.948-.177a1.87,1.87,0,0,1-.885-.354,3.833,3.833,0,0,1,.089-1.417c0-.089,0-.089.089-.177a1.222,1.222,0,0,0,.266-.354H2.807c.089-.177.089-.266.177-.354a25.7,25.7,0,0,1,4.516-.177h.62c0-.089.089-.177.089-.266a.754.754,0,0,0-.443-.974v-.177c.266-.177.62.089.885,0a1.87,1.87,0,0,0,.885-.354.588.588,0,0,0-.354-.443,3.534,3.534,0,0,1-1.151-.62c-.089-.089-.177,0-.266,0s-.089-.089-.177-.089c0-.177.089-.266.177-.266a.8.8,0,0,1,.443.089.978.978,0,0,0,.708,0c0-.177-.177-.177-.266-.266a1.966,1.966,0,0,1-.974-.443c.089-.177.089-.354.177-.443a.087.087,0,0,0-.089-.089,2.219,2.219,0,0,1-.62-.354c-.089-.089-.266-.177-.354-.266.089-.354.531-.354.708-.708-.089-.089-.177-.177-.266-.177-.177-.089-.266-.177-.266-.354s-.089-.266-.266-.443a1.554,1.554,0,0,1-.354-.443.687.687,0,0,1-.177-.885c0-.089.089-.177.089-.266a1.427,1.427,0,0,0,.62-.354.954.954,0,0,1,.708-.177H9.182c.089-.089.089-.177.177-.266.177-.266.531-.177.62-.531.089-.266.354-.443.531-.708-.089-.089-.266-.177-.354-.266a1.5,1.5,0,0,1,.177-.443c-.266-.177-.266-.443-.354-.708s-.266-.443-.354-.708a2.111,2.111,0,0,1,.974-.531c.089,0,.266,0,.266-.089a1.573,1.573,0,0,1,.885-.354,20.007,20.007,0,0,1,2.3-.089c1.062-.089,2.125-.089,3.276-.177a1.123,1.123,0,0,0,.531-.089c.177,0,.266-.177.354-.354a1.163,1.163,0,0,0-.266-.885l-.177-.177c0-.177.089-.177.177-.089.266,0,.443.089.708.089.708,0,1.505.089,2.214.089h.266c.089-.266-.089-.266-.266-.354l-.8-.266c-.708-.177-1.505-.266-2.214-.443-.089,0-.266-.089-.354-.089-.089-.177-.177-.266-.266-.443a.849.849,0,0,1,.8-.177,9.756,9.756,0,0,0,1.594.177c.266,0,.443,0,.62-.266-.177,0-.266-.089-.354-.089-.974-.177-1.859-.354-2.833-.531-.089,0-.266-.089-.354-.089-.266-.089-.354-.266-.089-.443.089-.089.177-.177.177-.266s.089-.177.177-.266c-.266-.354-.8-.266-1.151-.62a1.728,1.728,0,0,1,.62-.089,9.86,9.86,0,0,0,1.505-.177.778.778,0,0,1,.62.089,3.979,3.979,0,0,0,1.771,0h.354c.443.089.885.089,1.328.177.443,0,.885.089,1.328.089a17.2,17.2,0,0,0,2.125-.177.532.532,0,0,0,.354-.089c.974,0,1.948,0,3.01-.089.531,0,1.062-.089,1.594-.089,1.151-.089,2.214-.177,3.365-.266,1.505-.177,2.922-.266,4.427-.443s2.922-.354,4.427-.443c3.187-.177,6.463-.443,9.651-.62q3.586-.266,7.172-.266c2.568-.089,5.135-.089,7.7-.089H77.624c1.24,0,2.479.089,3.719.089.885,0,1.859-.089,2.745,0,1.771.089,3.453,0,5.224.089h13.635c.885,0,1.771.089,2.656.089,1.24,0,2.479.266,3.63.266.266,0,.443.089.708.089,0,.089-.089.089-.177.177s-.089.177-.177.177c-.177.089-.354.177-.354.443a.309.309,0,0,1-.089.177c-.266.089-.177.354-.443.531a.663.663,0,0,0,.443-.089,5.64,5.64,0,0,1,.177.62,1.949,1.949,0,0,0,.708-.089c.089.266.354.443.177.708v.089h0v-.089a1.065,1.065,0,0,0,.708-.177c.089-.089.266-.089.266.177,0,.177.177.177.266.177.177-.089.354-.266.531-.354.266.089.443.177.443.443,0,.089.089.177.177.354.354-.266.62-.443,1.062-.266-.089.089-.177.089-.354.177.089.089.089.177.177.266a2.169,2.169,0,0,0,1.062-.354,8.172,8.172,0,0,0,.443.708V137.3a.166.166,0,0,1,.266,0,1.936,1.936,0,0,1,.266.443,1.539,1.539,0,0,0,.974-.531.274.274,0,0,1,.177-.089c.089,0,.177-.089.266-.089.089-.089.177-.177.266-.177.177.266.354.443.708.354v-.354l.531-.266a.8.8,0,0,1-.266-.62h.089a1.691,1.691,0,0,0,1.24.62c.177,0,.354.089.62.089a1.932,1.932,0,0,1,.354-.443c.177.089.266.089.443.177a.789.789,0,0,0,.443-.708c0-.089.089-.177.266-.443a1.522,1.522,0,0,0,.089.708c.266-.177.531-.266.8-.443v-.266h.089a1.53,1.53,0,0,1,.885.089c.089.089.266.177.266.266.089.443.266.531.708.62.089,0,.177.089.266.089,0,.177-.089.266-.089.443.177.266.531.089.8.266.089.177.089.354.177.531-.177,0-.266.089-.354.089a.087.087,0,0,0-.089.089l.089.089c.089,0,.177.089.354.089a.532.532,0,0,0-.089.354c.089.177.266.089.443.177l.089.089v.531a.957.957,0,0,1-.62.266c-.62.177-1.328.266-1.948.443-.177,0-.354.089-.531.089a.19.19,0,0,0-.177.177c-.089.089-.089.177-.089.354.443.177.885,0,1.328.089s.885-.177,1.417-.177c-.089.089-.177.266-.266.266a1.462,1.462,0,0,0-.885.885c-.885.266-1.859.354-2.745.708.177.266.354.266.531.177.62-.089,1.24-.177,1.771-.266h.8c0,.266-.266.266-.354.354a2.387,2.387,0,0,0-.62.708c-.177.443-.443.8-.62,1.24,0,.089-.089.089-.177.177s-.266.089-.354.177a30.121,30.121,0,0,1-3.01.62c-.8.177-1.594.177-2.479.354l-3.187.531a.949.949,0,0,0-.531.177c0,.177.089.177.177.177h.266a.765.765,0,0,1,.531.266c.177.266.266.531,0,.708-.354.266-.354.531-.443.885a7.033,7.033,0,0,0-1.594,1.24,1.852,1.852,0,0,0,.531.354c0,.354-.266.443-.443.62.089.089.089.177.177.354a.669.669,0,0,0,.089.354.672.672,0,0,1-.266.8c-.089.089-.177.089-.177.177-.089.354-.354.443-.531.62a1.651,1.651,0,0,0-.531,1.771c.885.443,1.771.8,2.656,1.151l.531.266c.62.266.8.443,1.151,1.24,0,.177-.266.089-.177.266a.43.43,0,0,1-.266.531c-.177.089-.443.177-.62.266a1.5,1.5,0,0,0-.443.177,1.851,1.851,0,0,0,.531.354c0,.266-.266.266-.443.443a1.554,1.554,0,0,0-.354.443,2.808,2.808,0,0,0-.443.531c.266.089.531.089.708.177a3.107,3.107,0,0,1,.708.443,2.315,2.315,0,0,1-.266.708.884.884,0,0,1-.354.443c-.354.177-.443.62-.708.8a.325.325,0,0,0-.089.266v.885a1.04,1.04,0,0,0,.885.531.5.5,0,0,1,.443.531c0,.177,0,.354-.177.443-.089.089-.177.089-.266.177.089.177.177.266.266.443-.177.089-.354.089-.443.177-.177.089-.266.177-.443.266l-.266.531c.177.177.443.177.531.531,0,.266,0,.443-.266.531-.177.089-.354.089-.531.266v.089c.089.089.266.177.354.266s.266.177.354.266c.177.177.089.354,0,.531.089.089-.089.266.089.354a.669.669,0,0,1-.089-.354c.089,0,.177.089.266.089.177.177.177.443,0,.531-1.505-.177-1.771-.177-1.948-.089Zm-4.693-35.239c.177.089.266,0,.266-.089v-.266a.325.325,0,0,0-.089-.266C107.374,134.551,107.374,134.817,107.285,134.994Zm12.219,1.594c.531.089.531.089.62-.089C119.947,136.5,119.769,136.587,119.5,136.587Zm-1.151.266v-.089h-.177c0,.089,0,.089.089.089Zm-11.51-1.328h0c-.089-.089-.089-.089-.177-.089v.089A.123.123,0,0,1,106.843,135.525Zm-.885-.177v-.089s-.089,0,0,.089c-.089-.089-.089,0-.089,0Zm5.135,1.682h0c.089.089.089.089.089,0Zm5.578.089h0a.123.123,0,0,0-.177,0l.089.089A.087.087,0,0,0,116.671,137.119Zm-1.151.443Zm-1.594.354Z" transform="translate(208.925 0.227) rotate(90)" fill="#d1d1d1"/></svg>